HIERARCHY
ROOT hip
{
  OFFSET 0 0 0
  CHANNELS 6 Xposition Yposition Zposition Zrotation Yrotation Xrotation
  JOINT abdomen
  {
    OFFSET 0 20.6881 -0.73152
    CHANNELS 3 Zrotation Xrotation Yrotation
    JOINT chest
    {
      OFFSET 0 11.7043 -0.48768
      CHANNELS 3 Zrotation Xrotation Yrotation
      JOINT neck
      {
        OFFSET 0 22.1894 -2.19456
        CHANNELS 3 Zrotation Xrotation Yrotation
        JOINT head
        {
          OFFSET -0.24384 7.07133 1.2192
          CHANNELS 3 Zrotation Xrotation Yrotation
          JOINT leftEye
          {
            OFFSET 4.14528 8.04674 8.04672
            CHANNELS 3 Zrotation Xrotation Yrotation
            End Site
            {
              OFFSET 1 0 0
            }
          }
          JOINT rightEye
          {
            OFFSET -3.6576 8.04674 8.04672
            CHANNELS 3 Zrotation Xrotation Yrotation
            End Site
            {
              OFFSET 1 0 0
            }
          }
        }
      }
      JOINT rCollar
      {
        OFFSET -2.68224 19.2634 -4.8768
        CHANNELS 3 Zrotation Xrotation Yrotation
        JOINT rShldr
        {
          OFFSET -8.77824 -1.95073 1.46304
          CHANNELS 3 Zrotation Xrotation Yrotation
          JOINT rForeArm
          {
            OFFSET -28.1742 -1.7115 0.48768
            CHANNELS 3 Zrotation Xrotation Yrotation
            JOINT rHand
            {
              OFFSET -22.5879 0.773209 7.07136
              CHANNELS 3 Zrotation Xrotation Yrotation
              JOINT rThumb1
              {
                OFFSET -1.2192 -0.487915 3.41376
                CHANNELS 3 Zrotation Xrotation Yrotation
                JOINT rThumb2
                {
                  OFFSET -3.37035 -0.52449 3.41376
                  CHANNELS 3 Zrotation Xrotation Yrotation
                  End Site
                  {
                    OFFSET -1.78271 -1.18214 1.43049
                  }
                }
              }
              JOINT rIndex1
              {
                OFFSET -7.75947 0.938293 5.60832
                CHANNELS 3 Zrotation Xrotation Yrotation
                JOINT rIndex2
                {
                  OFFSET -2.54057 -0.884171 1.56538
                  CHANNELS 3 Zrotation Xrotation Yrotation
                  End Site
                  {
                    OFFSET -1.62519 -0.234802 1.16502
                  }
                }
              }
              JOINT rMid1
              {
                OFFSET -8.24714 1.18213 3.41376
                CHANNELS 3 Zrotation Xrotation Yrotation
                JOINT rMid2
                {
                  OFFSET -3.10165 -0.590103 1.0647
                  CHANNELS 3 Zrotation Xrotation Yrotation
                  End Site
                  {
                    OFFSET -2.48547 -0.328903 0.83742
                  }
                }
              }
              JOINT rRing1
              {
                OFFSET -8.82822 0.546677 1.51678
                CHANNELS 3 Zrotation Xrotation Yrotation
                JOINT rRing2
                {
                  OFFSET -2.60934 -0.819778 -0.0198488
                  CHANNELS 3 Zrotation Xrotation Yrotation
                  End Site
                  {
                    OFFSET -2.33842 -0.294052 0.168128
                  }
                }
              }
              JOINT rPinky1
              {
                OFFSET -8.27202 -0.0477905 -0.4584
                CHANNELS 3 Zrotation Xrotation Yrotation
                JOINT rPinky2
                {
                  OFFSET -1.82734 -0.647385 -0.700984
                  CHANNELS 3 Zrotation Xrotation Yrotation
                  End Site
                  {
                    OFFSET -1.69225 -0.51767 -0.607171
                  }
                }
              }
            }
          }
        }
      }
      JOINT lCollar
      {
        OFFSET 2.68224 19.2634 -4.8768
        CHANNELS 3 Zrotation Xrotation Yrotation
        JOINT lShldr
        {
          OFFSET 8.77824 -1.95073 1.46304
          CHANNELS 3 Zrotation Xrotation Yrotation
          JOINT lForeArm
          {
            OFFSET 28.1742 -1.7115 0.48768
            CHANNELS 3 Zrotation Xrotation Yrotation
            JOINT lHand
            {
              OFFSET 22.5879 0.773209 7.07136
              CHANNELS 3 Zrotation Xrotation Yrotation
              JOINT lThumb1
              {
                OFFSET 1.2192 -0.487915 3.41376
                CHANNELS 3 Zrotation Xrotation Yrotation
                JOINT lThumb2
                {
                  OFFSET 3.37035 -0.52449 3.41376
                  CHANNELS 3 Zrotation Xrotation Yrotation
                  End Site
                  {
                    OFFSET 1.78271 -1.18214 1.43049
                  }
                }
              }
              JOINT lIndex1
              {
                OFFSET 7.75947 0.938293 5.60832
                CHANNELS 3 Zrotation Xrotation Yrotation
                JOINT lIndex2
                {
                  OFFSET 2.54057 -0.884171 1.56538
                  CHANNELS 3 Zrotation Xrotation Yrotation
                  End Site
                  {
                    OFFSET 1.62519 -0.234802 1.16502
                  }
                }
              }
              JOINT lMid1
              {
                OFFSET 8.24714 1.18213 3.41376
                CHANNELS 3 Zrotation Xrotation Yrotation
                JOINT lMid2
                {
                  OFFSET 3.10165 -0.590103 1.0647
                  CHANNELS 3 Zrotation Xrotation Yrotation
                  End Site
                  {
                    OFFSET 2.48547 -0.328903 0.83742
                  }
                }
              }
              JOINT lRing1
              {
                OFFSET 8.82822 0.546677 1.51678
                CHANNELS 3 Zrotation Xrotation Yrotation
                JOINT lRing2
                {
                  OFFSET 2.60934 -0.819778 -0.0198488
                  CHANNELS 3 Zrotation Xrotation Yrotation
                  End Site
                  {
                    OFFSET 2.33842 -0.294052 0.168128
                  }
                }
              }
              JOINT lPinky1
              {
                OFFSET 8.27202 -0.0477905 -0.4584
                CHANNELS 3 Zrotation Xrotation Yrotation
                JOINT lPinky2
                {
                  OFFSET 1.82734 -0.647385 -0.700984
                  CHANNELS 3 Zrotation Xrotation Yrotation
                  End Site
                  {
                    OFFSET 1.69225 -0.51767 -0.607171
                  }
                }
              }
            }
          }
        }
      }
    }
  }
  JOINT rButtock
  {
    OFFSET -8.77824 4.35084 1.2192
    CHANNELS 3 Zrotation Xrotation Yrotation
    JOINT rThigh
    {
      OFFSET 0 -1.70687 -2.19456
      CHANNELS 3 Zrotation Xrotation Yrotation
      JOINT rShin
      {
        OFFSET 0 -36.8199 0.73152
        CHANNELS 3 Zrotation Xrotation Yrotation
        JOINT rFoot
        {
          OFFSET 0.73152 -45.1104 -5.12064
          CHANNELS 3 Zrotation Xrotation Yrotation
          End Site
          {
            OFFSET -1.1221 -3.69964 12.103
          }
        }
      }
    }
  }
  JOINT lButtock
  {
    OFFSET 8.77824 4.35084 1.2192
    CHANNELS 3 Zrotation Xrotation Yrotation
    JOINT lThigh
    {
      OFFSET 0 -1.70687 -2.19456
      CHANNELS 3 Zrotation Xrotation Yrotation
      JOINT lShin
      {
        OFFSET 0 -36.8199 0.73152
        CHANNELS 3 Zrotation Xrotation Yrotation
        JOINT lFoot
        {
          OFFSET -0.73152 -45.1104 -5.12064
          CHANNELS 3 Zrotation Xrotation Yrotation
          End Site
          {
            OFFSET 1.1221 -3.69964 12.103
          }
        }
      }
    }
  }
}
MOTION
Frames:	9
Frame Time:	0.00833333
-100.135 84.8928 -17.7319 0.0 0.0 0.0 -0.180148 -0.000587415 -0.005138 -0.0496822 -0.000860796 -0.0086067 8.62149e-15 7.95139e-16 3.10601e-17 2.58731e-14 9.54166e-15 8.85213e-17 -0.0 0.0 0.0 -0.0 0.0 0.0 4.42178e-15 5.82377e-19 1.49089e-16 9.22311e-14 2.17421e-16 1.59028e-15 1.56533e-12 -4.63367e-13 -3.49861e-14 1.78736e-11 4.86227e-13 1.08139e-13 4.21673e-11 4.68501e-14 1.62208e-13 7.28049e-11 8.5875e-14 2.72733e-13 4.21698e-11 4.65156e-14 1.55847e-13 7.73091 5.47488 0.417314 4.21665e-11 4.69132e-14 1.62208e-13 2.90554 0.965183 0.102902 4.21762e-11 4.70126e-14 1.60618e-13 10.2786 0.731801 0.0259123 4.21628e-11 4.8901e-14 1.68569e-13 2.22167 -0.733487 -0.20892 4.22563e-15 7.76503e-19 -1.49089e-16 8.95038e-14 -2.79541e-16 -1.98785e-16 1.56006e-12 4.66746e-13 1.59028e-14 1.78793e-11 -4.70101e-13 6.99722e-14 4.21717e-11 -6.787e-15 1.65389e-13 7.28407e-11 -9.54166e-15 2.8784e-13 4.21654e-11 -4.77083e-15 1.7175e-13 -7.73091 5.47488 -0.417314 4.21726e-11 -6.75868e-15 1.65389e-13 -2.90554 0.965183 -0.102902 4.21675e-11 -6.55989e-15 1.65389e-13 -10.2786 0.731801 -0.0259123 4.21807e-11 -4.37326e-15 1.59028e-13 -2.22167 -0.733487 0.20892 -2.03217e-16 0.0 -3.88251e-19 0.373564 -2.84391 -0.0347138 -0.0066498 -0.401535 -0.0584291 -0.509714 3.24465 0.124535 2.03217e-16 0.0 3.88251e-19 -0.647776 -3.54407 0.0518674 0.0046106 0.866743 0.0396099 0.511843 2.67657 -0.113179
-102.581 83.082 -22.053 172.048 -74.9242 -157.92 -2.08793 -4.22128 0.534022 0.754305 1.08609 0.168448 -1.07786 4.21347 0.148057 2.94752 -4.05392 0.522781 -0.0 0.0 0.0 -0.0 0.0 0.0 1.16449e-14 8.50733e-14 4.71978e-14 24.0713 3.90537 1.26934 -2.22092 -0.791946 3.669 0.128454 7.96591 1.08087 4.9531e-10 1.72303e-10 -8.49264e-10 8.35779e-10 2.97114e-10 -1.47541e-09 4.9531e-10 1.72304e-10 -8.49269e-10 7.73091 5.47488 0.417314 4.95309e-10 1.72305e-10 -8.49266e-10 2.90554 0.965183 0.102902 4.95317e-10 1.72305e-10 -8.49267e-10 10.2786 0.731801 0.0259123 4.95305e-10 1.72307e-10 -8.49262e-10 2.22167 -0.733487 -0.20892 1.147e-14 8.50741e-14 4.69109e-14 -23.565 -5.81358 -1.2031 1.50164 -0.480409 -2.51873 -0.826664 20.4182 -2.25279 -6.94352e-10 -4.41143e-11 -5.28311e-10 -1.2201e-09 -3.42549e-11 -8.67452e-10 -6.9436e-10 -4.41141e-11 -5.28303e-10 -7.73091 5.47488 -0.417314 -6.94352e-10 -4.41142e-11 -5.28311e-10 -2.90554 0.965183 -0.102902 -6.94356e-10 -4.41141e-11 -5.2831e-10 -10.2786 0.731801 -0.0259123 -6.94345e-10 -4.41117e-11 -5.28318e-10 -2.22167 -0.733487 0.20892 -2.03217e-16 0.0 -3.88251e-19 0.0170198 -7.33188 3.86001 -0.0126671 5.42147 0.00946175 -0.895115 3.02672 -10.0476 2.03217e-16 0.0 3.88251e-19 0.931631 -10.4316 -3.45742 -0.0029569 7.02676 -0.0673952 0.852075 0.414121 4.79183
-102.494 83.077 -22.0508 172.089 -75.0451 -157.914 -4.01682 -8.69188 1.10928 1.59932 2.23643 0.354446 -2.24205 8.66794 0.308037 6.14327 -8.33112 1.08437 -0.0 0.0 0.0 -0.0 0.0 0.0 2.06671e-14 1.67404e-13 1.02296e-13 49.3282 8.01116 2.62445 -4.45812 -1.61803 7.5489 -0.0752521 16.3944 2.29761 9.5489e-10 3.56001e-10 -1.79695e-09 1.60771e-09 6.13608e-10 -3.12078e-09 9.54888e-10 3.56003e-10 -1.79695e-09 7.73091 5.47488 0.417314 9.54889e-10 3.56005e-10 -1.79695e-09 2.90554 0.965183 0.102902 9.54897e-10 3.56005e-10 -1.79695e-09 10.2786 0.731801 0.0259123 9.54886e-10 3.56007e-10 -1.79695e-09 2.22167 -0.733487 -0.20892 2.05138e-14 1.67406e-13 1.0202e-13 -48.7441 -11.944 -2.5082 3.04478 -0.985904 -5.18463 0.586878 41.8781 -5.83711 -1.48112e-09 -1.03388e-10 -1.12252e-09 -2.6032e-09 -8.90645e-11 -1.84555e-09 -1.48113e-09 -1.0339e-10 -1.12252e-09 -7.73091 5.47488 -0.417314 -1.48112e-09 -1.03388e-10 -1.12253e-09 -2.90554 0.965183 -0.102902 -1.48112e-09 -1.03388e-10 -1.12252e-09 -10.2786 0.731801 -0.0259123 -1.48111e-09 -1.03385e-10 -1.12253e-09 -2.22167 -0.733487 0.20892 -2.03217e-16 0.0 -3.88251e-19 0.315976 -11.9837 8.10065 -0.0342682 11.5757 0.0827652 -1.38625 2.70569 -20.8017 2.03217e-16 0.0 3.88251e-19 1.64141 -17.5965 -7.41469 0.0146488 13.531 -0.184443 1.63217 -1.93931 10.0011
-102.429 83.0713 -22.0478 172.115 -75.1565 -157.878 -5.66018 -12.6581 1.64806 2.3421 3.25986 0.523314 -3.30028 12.6401 0.453974 9.06879 -12.1577 1.60032 -0.0 0.0 0.0 -0.0 0.0 0.0 2.60912e-14 2.55219e-13 1.41295e-13 71.6857 11.6929 3.8798 -6.36036 -2.3369 11.0152 -0.587365 23.8621 3.51184 1.40159e-09 5.16815e-10 -2.54812e-09 2.36173e-09 8.91169e-10 -4.42676e-09 1.40159e-09 5.16818e-10 -2.54812e-09 7.73091 5.47488 0.417314 1.40159e-09 5.16821e-10 -2.54812e-09 2.90554 0.965183 0.102902 1.4016e-09 5.16821e-10 -2.54812e-09 10.2786 0.731801 0.0259123 1.40159e-09 5.16823e-10 -2.54812e-09 2.22167 -0.733487 -0.20892 2.59587e-14 2.55221e-13 1.41031e-13 -71.4567 -17.4092 -3.76337 4.37857 -1.43009 -7.5583 6.55263 60.6658 -13.0134 -2.1674e-09 -1.32329e-10 -1.58526e-09 -3.80598e-09 -1.02746e-10 -2.60293e-09 -2.16741e-09 -1.32333e-10 -1.58525e-09 -7.73091 5.47488 -0.417314 -2.1674e-09 -1.32329e-10 -1.58527e-09 -2.90554 0.965183 -0.102902 -2.1674e-09 -1.32329e-10 -1.58526e-09 -10.2786 0.731801 -0.0259123 -2.1674e-09 -1.32326e-10 -1.58527e-09 -2.22167 -0.733487 0.20892 -2.03217e-16 0.0 -3.88251e-19 1.185 -16.0168 12.028 -0.0673913 17.0674 0.151799 -1.90691 2.3574 -30.3773 2.03217e-16 0.0 3.88251e-19 1.36767 -23.8466 -11.278 0.0542439 19.3466 -0.296628 2.6841 -3.97358 14.6372
-102.367 83.0609 -22.0344 171.938 -75.2606 -157.66 -6.76098 -15.3678 2.06196 2.84333 3.9661 0.648647 -4.04545 15.4067 0.555358 11.1581 -14.8614 1.97199 -0.0 0.0 0.0 -0.0 0.0 0.0 2.25202e-14 3.56743e-13 1.40044e-13 87.1623 14.3358 4.81974 -7.63751 -2.82472 13.4398 -1.15265 28.9618 4.46101 1.81611e-09 6.20418e-10 -2.808e-09 3.07096e-09 1.0714e-09 -4.88427e-09 1.81611e-09 6.20422e-10 -2.80801e-09 7.73091 5.47488 0.417314 1.81611e-09 6.20425e-10 -2.80801e-09 2.90554 0.965183 0.102902 1.81611e-09 6.20424e-10 -2.80801e-09 10.2786 0.731801 0.0259123 1.8161e-09 6.20426e-10 -2.80801e-09 2.22167 -0.733487 -0.20892 2.24066e-14 3.56745e-13 1.39795e-13 -87.4655 -21.2405 -4.75086 5.27848 -1.73171 -9.19936 20.3579 72.9618 -27.2964 -2.60247e-09 -8.54393e-11 -1.71931e-09 -4.55792e-09 -1.36064e-11 -2.80851e-09 -2.60248e-09 -8.54432e-11 -1.7193e-09 -7.73091 5.47488 -0.417314 -2.60247e-09 -8.54385e-11 -1.71931e-09 -2.90554 0.965183 -0.102902 -2.60248e-09 -8.5439e-11 -1.71931e-09 -10.2786 0.731801 -0.0259123 -2.60247e-09 -8.54365e-11 -1.71932e-09 -2.22167 -0.733487 0.20892 -2.03217e-16 0.0 -3.88251e-19 2.13408 -18.7732 14.8345 -0.0988361 20.9027 0.20346 -2.31872 2.08785 -37.0179 2.03217e-16 0.0 3.88251e-19 0.629014 -28.1491 -14.1797 0.0969952 23.4409 -0.382278 3.60439 -5.35723 17.7931
-102.281 83.0469 -22.0192 171.857 -75.3183 -157.399 -7.20112 -16.3394 2.28664 3.01095 4.23933 0.715962 -4.32916 16.4873 0.583532 12.0261 -16.0012 2.11552 -0.0 0.0 0.0 -0.0 0.0 0.0 1.49533e-15 5.07109e-13 6.82033e-14 93.1809 15.5401 5.27532 -8.12881 -3.0131 14.3948 -1.40793 30.7636 4.82999 2.20979e-09 6.24362e-10 -2.16951e-09 3.76378e-09 1.08242e-09 -3.79105e-09 2.20979e-09 6.24365e-10 -2.16952e-09 7.73091 5.47488 0.417314 2.20979e-09 6.24368e-10 -2.16952e-09 2.90554 0.965183 0.102902 2.20979e-09 6.24367e-10 -2.16952e-09 10.2786 0.731801 0.0259123 2.20978e-09 6.24369e-10 -2.16952e-09 2.22167 -0.733487 -0.20892 1.40033e-15 5.07111e-13 6.7982e-14 -93.8101 -22.7828 -5.25779 5.60883 -1.84037 -9.81096 33.1369 77.1226 -40.1835 -2.61413e-09 1.00059e-10 -1.25267e-09 -4.54704e-09 2.65816e-10 -2.00424e-09 -2.61415e-09 1.00056e-10 -1.25266e-09 -7.73091 5.47488 -0.417314 -2.61413e-09 1.0006e-10 -1.25267e-09 -2.90554 0.965183 -0.102902 -2.61414e-09 1.00059e-10 -1.25267e-09 -10.2786 0.731801 -0.0259123 -2.61413e-09 1.00061e-10 -1.25267e-09 -2.22167 -0.733487 0.20892 -2.03217e-16 0.0 -3.88251e-19 2.55576 -19.9385 15.8365 -0.113155 22.4201 0.225067 -2.48007 1.98257 -39.5314 2.03217e-16 0.0 3.88251e-19 0.230025 -29.9666 -15.2352 0.118224 25.1141 -0.419502 3.9913 -5.93466 18.8608
-102.192 83.032 -22.0028 171.797 -75.3452 -157.117 -7.18983 -16.0698 2.36801 2.94195 4.20279 0.741518 -4.27821 16.3636 0.557671 12.0021 -16.0244 2.08955 -0.0 0.0 0.0 -0.0 0.0 0.0 -3.17651e-14 6.9095e-13 -5.33799e-14 92.4887 15.7221 5.36898 -8.08018 -2.99514 14.2991 -1.343 30.2182 4.72157 2.58743e-09 5.58053e-10 -8.99351e-10 4.44266e-09 9.74142e-10 -1.60744e-09 2.58743e-09 5.58055e-10 -8.99362e-10 7.73091 5.47488 0.417314 2.58743e-09 5.58056e-10 -8.99354e-10 2.90554 0.965183 0.102902 2.58743e-09 5.58055e-10 -8.99352e-10 10.2786 0.731801 0.0259123 2.58742e-09 5.58057e-10 -8.99352e-10 2.22167 -0.733487 -0.20892 -3.18419e-14 6.90952e-13 -5.35662e-14 -93.1791 -22.6988 -5.38545 5.54114 -1.8133 -9.68696 31.6084 76.7817 -38.6522 -2.32677e-09 3.83018e-10 -3.63648e-10 -3.99757e-09 6.78948e-10 -4.89955e-10 -2.32678e-09 3.83017e-10 -3.63639e-10 -7.73091 5.47488 -0.417314 -2.32677e-09 3.83021e-10 -3.6365e-10 -2.90554 0.965183 -0.102902 -2.32678e-09 3.83019e-10 -3.63648e-10 -10.2786 0.731801 -0.0259123 -2.32677e-09 3.8302e-10 -3.63656e-10 -2.22167 -0.733487 0.20892 -2.03217e-16 0.0 -3.88251e-19 2.45259 -20.0197 15.4886 -0.111442 22.2818 0.223475 -2.44142 2.00062 -39.0991 2.03217e-16 0.0 3.88251e-19 0.333773 -30.0819 -14.8156 0.11721 25.0584 -0.418551 3.91793 -5.96892 18.424
-102.116 83.0218 -21.9926 171.702 -75.4234 -156.951 -6.97107 -15.2745 2.37528 2.78127 4.02475 0.74486 -4.09514 15.7559 0.516776 11.5822 -15.5928 2.00249 -0.0 0.0 0.0 -0.0 0.0 0.0 -6.21426e-14 8.40743e-13 -1.72078e-13 89.1101 15.4949 5.3082 -7.82072 -2.89727 13.7923 -1.15964 28.7489 4.43067 2.91988e-09 4.94944e-10 2.86549e-10 5.04193e-09 8.70852e-10 4.31731e-10 2.91989e-09 4.94946e-10 2.86534e-10 7.73091 5.47488 0.417314 2.91989e-09 4.94945e-10 2.86548e-10 2.90554 0.965183 0.102902 2.91989e-09 4.94943e-10 2.8655e-10 10.2786 0.731801 0.0259123 2.91988e-09 4.94945e-10 2.86552e-10 2.22167 -0.733487 -0.20892 -6.22052e-14 8.40745e-13 -1.72235e-13 -89.7744 -22.0015 -5.35538 5.31599 -1.73307 -9.27268 24.3648 74.6598 -31.3635 -2.03456e-09 6.53051e-10 4.6948e-10 -3.4433e-09 1.07143e-09 9.28613e-10 -2.03457e-09 6.53052e-10 4.69489e-10 -7.73091 5.47488 -0.417314 -2.03456e-09 6.53054e-10 4.69479e-10 -2.90554 0.965183 -0.102902 -2.03456e-09 6.53051e-10 4.6948e-10 -10.2786 0.731801 -0.0259123 -2.03455e-09 6.53052e-10 4.69474e-10 -2.22167 -0.733487 0.20892 -2.03217e-16 0.0 -3.88251e-19 2.17014 -19.6503 14.6279 -0.10321 21.4797 0.213039 -2.3377 2.05237 -37.5243 2.03217e-16 0.0 3.88251e-19 0.665331 -29.524 -13.7827 0.107242 24.3297 -0.402538 3.65749 -5.79729 17.3474
-102.064 83.0118 -21.9921 171.68 -75.576 -156.946 -6.78313 -14.6688 2.37905 2.67335 3.87353 0.745571 -3.98154 15.3843 0.499602 11.264 -15.3682 1.96342 -0.0 0.0 0.0 -0.0 0.0 0.0 -7.45188e-14 8.88964e-13 -2.35262e-13 87.0575 15.4706 5.30484 -7.67847 -2.84555 13.5143 -1.05038 27.7797 4.24578 3.17801e-09 5.08491e-10 6.72255e-10 5.49591e-09 8.96818e-10 1.09165e-09 3.17803e-09 5.08491e-10 6.72239e-10 7.73091 5.47488 0.417314 3.17802e-09 5.0849e-10 6.72258e-10 2.90554 0.965183 0.102902 3.17802e-09 5.08488e-10 6.72258e-10 10.2786 0.731801 0.0259123 3.17801e-09 5.0849e-10 6.72261e-10 2.22167 -0.733487 -0.20892 -7.45746e-14 8.88966e-13 -2.35411e-13 -87.8143 -21.7021 -5.39627 5.17426 -1.68231 -9.01337 21.103 73.373 -28.0748 -2.03165e-09 7.9977e-10 7.68457e-10 -3.41801e-09 1.2889e-09 1.44572e-09 -2.03166e-09 7.99772e-10 7.68467e-10 -7.73091 5.47488 -0.417314 -2.03165e-09 7.99773e-10 7.68457e-10 -2.90554 0.965183 -0.102902 -2.03166e-09 7.9977e-10 7.68456e-10 -10.2786 0.731801 -0.0259123 -2.03165e-09 7.9977e-10 7.68451e-10 -2.22167 -0.733487 0.20892 -2.03217e-16 0.0 -3.88251e-19 2.06108 -19.4655 14.0974 -0.0982097 21.0056 0.208231 -2.30288 2.04749 -36.6102 2.03217e-16 0.0 3.88251e-19 0.941192 -29.3261 -13.0098 0.102328 23.9838 -0.394971 3.48477 -5.7579 16.4966
